<?xml version="1.0" encoding="utf-8"?><svg viewBox="0 0 502.66 502.66" xmlns="http://www.w3.org/2000/svg" xmlns:xlink="http://www.w3.org/1999/xlink"><style>:root>svg{display:none}:root>svg:target{display:block}</style><svg viewBox="0 0 502.664 502.664" id="icon" xmlns="http://www.w3.org/2000/svg"><path d="M153.821 358.226L0 274.337v-46.463l153.821-83.414v54.574L46.636 250.523l107.185 53.431v54.272zm26.273 29.358L282.103 115.08h32.227L212.084 387.584h-31.99zm168.749-29.358v-54.272l107.164-52.999-107.164-52.59v-53.927l153.821 83.522v46.183l-153.821 84.083z"/></svg><svg viewBox="0 0 36 37" id="in" xmlns="http://www.w3.org/2000/svg"><path d="M14.205 12.75a1.5 1.5 0 11-3-.002 1.5 1.5 0 013 .002zm.045 2.61h-3v9.39h3v-9.39zm4.74 0h-2.985v9.39h2.955v-4.928c0-2.745 3.578-3 3.578 0v4.928H25.5v-5.948c0-4.627-5.295-4.455-6.54-2.182l.03-1.26z"/><rect x=".5" y="1.016" width="35" height="35" rx="17.5"/></svg></svg>